<mxfile host="app.diagrams.net" agent="Mozilla/5.0 (Windows NT 10.0; Win64; x64) AppleWebKit/537.36 (KHTML, like Gecko) Chrome/130.0.0.0 Safari/537.36" version="24.8.4">
  <diagram name="Page-1" id="Ps1ud6b3WEhJtYbDt9zd">
    <mxGraphModel dx="1434" dy="746" grid="1" gridSize="10" guides="1" tooltips="1" connect="1" arrows="1" fold="1" page="1" pageScale="1" pageWidth="850" pageHeight="1100" math="0" shadow="0">
      <root>
        <mxCell id="0" />
        <mxCell id="1" parent="0" />
        <mxCell id="yWIshHMj9opg228Ggfb8-1" value="8ball" style="rounded=0;whiteSpace=wrap;html=1;" vertex="1" parent="1">
          <mxGeometry x="365" y="30" width="120" height="60" as="geometry" />
        </mxCell>
        <mxCell id="yWIshHMj9opg228Ggfb8-13" style="edgeStyle=orthogonalEdgeStyle;rounded=0;orthogonalLoop=1;jettySize=auto;html=1;exitX=0.5;exitY=1;exitDx=0;exitDy=0;entryX=0.5;entryY=0;entryDx=0;entryDy=0;" edge="1" parent="1" source="yWIshHMj9opg228Ggfb8-2" target="yWIshHMj9opg228Ggfb8-6">
          <mxGeometry relative="1" as="geometry" />
        </mxCell>
        <mxCell id="yWIshHMj9opg228Ggfb8-2" value="User Input" style="rounded=0;whiteSpace=wrap;html=1;" vertex="1" parent="1">
          <mxGeometry x="378" y="180" width="95" height="50" as="geometry" />
        </mxCell>
        <mxCell id="yWIshHMj9opg228Ggfb8-44" value="" style="edgeStyle=orthogonalEdgeStyle;rounded=0;orthogonalLoop=1;jettySize=auto;html=1;" edge="1" parent="1" source="yWIshHMj9opg228Ggfb8-3" target="yWIshHMj9opg228Ggfb8-41">
          <mxGeometry relative="1" as="geometry" />
        </mxCell>
        <mxCell id="yWIshHMj9opg228Ggfb8-3" value="Good Response" style="rounded=0;whiteSpace=wrap;html=1;" vertex="1" parent="1">
          <mxGeometry x="570" y="420" width="95" height="50" as="geometry" />
        </mxCell>
        <mxCell id="yWIshHMj9opg228Ggfb8-45" value="" style="edgeStyle=orthogonalEdgeStyle;rounded=0;orthogonalLoop=1;jettySize=auto;html=1;" edge="1" parent="1" source="yWIshHMj9opg228Ggfb8-4" target="yWIshHMj9opg228Ggfb8-41">
          <mxGeometry relative="1" as="geometry" />
        </mxCell>
        <mxCell id="yWIshHMj9opg228Ggfb8-4" value="Bad Response" style="rounded=0;whiteSpace=wrap;html=1;" vertex="1" parent="1">
          <mxGeometry x="190" y="430" width="95" height="50" as="geometry" />
        </mxCell>
        <mxCell id="yWIshHMj9opg228Ggfb8-32" value="" style="edgeStyle=orthogonalEdgeStyle;rounded=0;orthogonalLoop=1;jettySize=auto;html=1;" edge="1" parent="1" source="yWIshHMj9opg228Ggfb8-5" target="yWIshHMj9opg228Ggfb8-27">
          <mxGeometry relative="1" as="geometry" />
        </mxCell>
        <mxCell id="yWIshHMj9opg228Ggfb8-5" value="Even Number" style="rounded=0;whiteSpace=wrap;html=1;" vertex="1" parent="1">
          <mxGeometry x="570" y="260" width="95" height="50" as="geometry" />
        </mxCell>
        <mxCell id="yWIshHMj9opg228Ggfb8-16" style="edgeStyle=orthogonalEdgeStyle;rounded=0;orthogonalLoop=1;jettySize=auto;html=1;exitX=0;exitY=0.5;exitDx=0;exitDy=0;" edge="1" parent="1" source="yWIshHMj9opg228Ggfb8-6">
          <mxGeometry relative="1" as="geometry">
            <mxPoint x="290" y="285" as="targetPoint" />
          </mxGeometry>
        </mxCell>
        <mxCell id="yWIshHMj9opg228Ggfb8-17" style="edgeStyle=orthogonalEdgeStyle;rounded=0;orthogonalLoop=1;jettySize=auto;html=1;exitX=1;exitY=0.5;exitDx=0;exitDy=0;" edge="1" parent="1" source="yWIshHMj9opg228Ggfb8-6">
          <mxGeometry relative="1" as="geometry">
            <mxPoint x="560" y="285" as="targetPoint" />
          </mxGeometry>
        </mxCell>
        <mxCell id="yWIshHMj9opg228Ggfb8-6" value="Generate Number" style="rounded=0;whiteSpace=wrap;html=1;" vertex="1" parent="1">
          <mxGeometry x="378" y="260" width="95" height="50" as="geometry" />
        </mxCell>
        <mxCell id="yWIshHMj9opg228Ggfb8-30" value="" style="edgeStyle=orthogonalEdgeStyle;rounded=0;orthogonalLoop=1;jettySize=auto;html=1;" edge="1" parent="1" source="yWIshHMj9opg228Ggfb8-7" target="yWIshHMj9opg228Ggfb8-8">
          <mxGeometry relative="1" as="geometry" />
        </mxCell>
        <mxCell id="yWIshHMj9opg228Ggfb8-7" value="Odd Number" style="rounded=0;whiteSpace=wrap;html=1;" vertex="1" parent="1">
          <mxGeometry x="190" y="260" width="95" height="50" as="geometry" />
        </mxCell>
        <mxCell id="yWIshHMj9opg228Ggfb8-31" value="" style="edgeStyle=orthogonalEdgeStyle;rounded=0;orthogonalLoop=1;jettySize=auto;html=1;" edge="1" parent="1" source="yWIshHMj9opg228Ggfb8-8" target="yWIshHMj9opg228Ggfb8-4">
          <mxGeometry relative="1" as="geometry" />
        </mxCell>
        <mxCell id="yWIshHMj9opg228Ggfb8-8" value="Add Red with Colorama" style="rounded=0;whiteSpace=wrap;html=1;" vertex="1" parent="1">
          <mxGeometry x="190" y="350" width="95" height="50" as="geometry" />
        </mxCell>
        <mxCell id="yWIshHMj9opg228Ggfb8-29" value="" style="edgeStyle=orthogonalEdgeStyle;rounded=0;orthogonalLoop=1;jettySize=auto;html=1;" edge="1" parent="1" source="yWIshHMj9opg228Ggfb8-27" target="yWIshHMj9opg228Ggfb8-3">
          <mxGeometry relative="1" as="geometry" />
        </mxCell>
        <mxCell id="yWIshHMj9opg228Ggfb8-27" value="Add Green with Colorama" style="rounded=0;whiteSpace=wrap;html=1;" vertex="1" parent="1">
          <mxGeometry x="570" y="340" width="95" height="50" as="geometry" />
        </mxCell>
        <mxCell id="yWIshHMj9opg228Ggfb8-36" value="No" style="rounded=0;whiteSpace=wrap;html=1;" vertex="1" parent="1">
          <mxGeometry x="270" y="540" width="120" height="60" as="geometry" />
        </mxCell>
        <mxCell id="yWIshHMj9opg228Ggfb8-58" value="" style="edgeStyle=orthogonalEdgeStyle;rounded=0;orthogonalLoop=1;jettySize=auto;html=1;" edge="1" parent="1" source="yWIshHMj9opg228Ggfb8-41" target="yWIshHMj9opg228Ggfb8-46">
          <mxGeometry relative="1" as="geometry" />
        </mxCell>
        <mxCell id="yWIshHMj9opg228Ggfb8-59" style="edgeStyle=orthogonalEdgeStyle;rounded=0;orthogonalLoop=1;jettySize=auto;html=1;" edge="1" parent="1" source="yWIshHMj9opg228Ggfb8-41" target="yWIshHMj9opg228Ggfb8-36">
          <mxGeometry relative="1" as="geometry" />
        </mxCell>
        <mxCell id="yWIshHMj9opg228Ggfb8-41" value="Ask again? (User Input)" style="rounded=0;whiteSpace=wrap;html=1;" vertex="1" parent="1">
          <mxGeometry x="366" y="425" width="120" height="60" as="geometry" />
        </mxCell>
        <mxCell id="yWIshHMj9opg228Ggfb8-48" value="" style="edgeStyle=orthogonalEdgeStyle;rounded=0;orthogonalLoop=1;jettySize=auto;html=1;" edge="1" parent="1" source="yWIshHMj9opg228Ggfb8-46">
          <mxGeometry relative="1" as="geometry">
            <mxPoint x="645" y="570" as="targetPoint" />
          </mxGeometry>
        </mxCell>
        <mxCell id="yWIshHMj9opg228Ggfb8-60" style="edgeStyle=orthogonalEdgeStyle;rounded=0;orthogonalLoop=1;jettySize=auto;html=1;" edge="1" parent="1" source="yWIshHMj9opg228Ggfb8-46">
          <mxGeometry relative="1" as="geometry">
            <mxPoint x="640" y="570" as="targetPoint" />
          </mxGeometry>
        </mxCell>
        <mxCell id="yWIshHMj9opg228Ggfb8-46" value="Yes" style="rounded=0;whiteSpace=wrap;html=1;" vertex="1" parent="1">
          <mxGeometry x="425" y="540" width="120" height="60" as="geometry" />
        </mxCell>
        <mxCell id="yWIshHMj9opg228Ggfb8-51" value="" style="edgeStyle=orthogonalEdgeStyle;rounded=0;orthogonalLoop=1;jettySize=auto;html=1;" edge="1" parent="1">
          <mxGeometry relative="1" as="geometry">
            <mxPoint x="550" y="570" as="sourcePoint" />
            <mxPoint x="725" y="200" as="targetPoint" />
          </mxGeometry>
        </mxCell>
        <mxCell id="yWIshHMj9opg228Ggfb8-53" value="" style="endArrow=classic;html=1;rounded=0;" edge="1" parent="1">
          <mxGeometry width="50" height="50" relative="1" as="geometry">
            <mxPoint x="720" y="200" as="sourcePoint" />
            <mxPoint x="480" y="200" as="targetPoint" />
          </mxGeometry>
        </mxCell>
      </root>
    </mxGraphModel>
  </diagram>
</mxfile>
